<?xml version="1.0" encoding="utf-8"?>
<!-- Generator: Adobe Illustrator 24.2.3, SVG Export Plug-In . SVG Version: 6.00 Build 0)  -->
<svg version="1.1" id="Layer_1" xmlns="http://www.w3.org/2000/svg" xmlns:xlink="http://www.w3.org/1999/xlink" x="0px" y="0px"
	 viewBox="0 0 576 184.7" style="enable-background:new 0 0 576 184.7;" xml:space="preserve">
<style type="text/css">
	.st0{fill:#FFFFFF;}
</style>
<g>
	<path class="st0" d="M124.1,183.2c-50.2,0-91.1-40.9-91.1-91.1C33,41.9,73.8,1,124.1,1s91.1,40.9,91.1,91.1
		C215.2,142.3,174.3,183.2,124.1,183.2 M124.1,7.3c-46.7,0-84.8,38-84.8,84.8c0,46.7,38,84.8,84.8,84.8s84.8-38,84.8-84.8
		C208.8,45.3,170.8,7.3,124.1,7.3"/>
	<path class="st0" d="M99.8,160.2l0.1-33.2H76.8c-2.9,0-5-0.8-6.2-2.3c-0.5-0.6-0.9-1.3-1.1-2.1l-0.2,27.3
		C77.9,156.4,88.4,160.2,99.8,160.2"/>
	<g>
		<path class="st0" d="M99.5,95.9c-0.5-0.6-0.7-1.4-0.7-2.6V69.5l0-32.6H79.6h-9.6h-5.2c0,0,5.2,3.2,5.3,12.2c0,0,0,0,0,0l0.1,67.1
			c0,1.6,0.2,2.9,0.6,4.1c0.3,0.7,0.6,1.4,1.1,1.9c1.1,1.4,3,2.1,5.7,2.1h21.3h43v-1.8V97.4v-0.5h-39.6
			C100.9,96.8,100,96.5,99.5,95.9z"/>
		<path class="st0" d="M192.8,60.1c-1.4-4.9-3.7-9.1-6.9-12.5c-3.2-3.4-7.3-6.1-12.4-7.9c-5.1-1.8-11.3-2.8-18.6-2.8h-53.5v28h49.6
			c4.9,0,8.4,0.9,10.4,2.8c2,1.8,3,5.4,3,10.6v5.5c0,4.6-1,7.9-3,10c-2,2.1-5.4,3.1-10.4,3.1h-6.7v27.4h12c13.7,0,23.6-3.2,29.5-9.6
			c6-6.4,9-16,9-28.8v-9.1C194.9,70.6,194.2,65.1,192.8,60.1z"/>
	</g>
	<g>
		<path class="st0" d="M255,9.3h6.5v34h19.6v6.4H255V9.3z"/>
		<path class="st0" d="M305.8,50.4c-2.9,0-5.5-0.5-7.9-1.6c-2.4-1.1-4.4-2.6-6.1-4.5c-1.7-1.9-3-4.1-4-6.6c-1-2.5-1.4-5.2-1.4-8.1
			v-0.1c0-2.9,0.5-5.5,1.4-8.1c1-2.5,2.3-4.7,4.1-6.6c1.7-1.9,3.8-3.4,6.2-4.5c2.4-1.1,5-1.7,7.9-1.7s5.5,0.5,7.9,1.6
			c2.4,1.1,4.4,2.6,6.1,4.5c1.7,1.9,3,4.1,4,6.6c1,2.5,1.4,5.2,1.4,8.1v0.1c0,2.9-0.5,5.5-1.4,8.1c-1,2.5-2.3,4.7-4.1,6.6
			c-1.7,1.9-3.8,3.4-6.2,4.5C311.3,49.8,308.7,50.4,305.8,50.4z M305.9,43.9c1.8,0,3.5-0.4,5.1-1.1c1.5-0.7,2.9-1.8,4-3.1
			c1.1-1.3,2-2.8,2.6-4.5c0.6-1.7,0.9-3.6,0.9-5.5v-0.1c0-2-0.3-3.8-0.9-5.6c-0.6-1.8-1.5-3.3-2.6-4.6c-1.1-1.3-2.5-2.3-4-3.1
			c-1.6-0.8-3.3-1.2-5.1-1.2c-1.8,0-3.5,0.4-5.1,1.1c-1.5,0.8-2.9,1.8-4,3.1c-1.1,1.3-2,2.8-2.6,4.5c-0.6,1.7-0.9,3.6-0.9,5.5v0.1
			c0,2,0.3,3.8,0.9,5.6c0.6,1.8,1.5,3.3,2.6,4.6c1.1,1.3,2.5,2.3,4,3.1C302.4,43.5,304.1,43.9,305.9,43.9z"/>
		<path class="st0" d="M333.3,9.3H350c2.3,0,4.4,0.4,6.2,1.1c1.8,0.7,3.3,1.7,4.5,3c1,1.1,1.8,2.4,2.3,3.9c0.5,1.5,0.8,3.1,0.8,4.9
			v0.1c0,1.7-0.2,3.1-0.7,4.5c-0.4,1.3-1.1,2.5-1.8,3.5c-0.8,1-1.7,1.9-2.8,2.6c-1.1,0.7-2.3,1.3-3.6,1.6L365,49.7h-7.7l-9.2-14.1
			H348h-8.1v14.1h-6.5V9.3z M349.5,29.3c2.4,0,4.2-0.6,5.6-1.8c1.4-1.2,2.1-2.9,2.1-5v-0.1c0-2.2-0.7-3.9-2-5
			c-1.4-1.1-3.3-1.7-5.7-1.7h-9.6v13.6H349.5z"/>
		<path class="st0" d="M371.9,9.3h27.6v6.4h-21.1v10.4h18.7v6.4h-18.7v10.8h21.4v6.4h-27.9V9.3z"/>
		<path class="st0" d="M407.6,9.3h6.1l20,28v-28h6.5v40.4h-5.5l-20.5-28.8v28.8h-6.5V9.3z"/>
		<path class="st0" d="M448.4,44.5l22-28.9h-21.3V9.3H479v5.3l-22,28.9h22v6.3h-30.6V44.5z"/>
		<path class="st0" d="M505,50.4c-2.9,0-5.5-0.5-7.9-1.6c-2.4-1.1-4.4-2.6-6.1-4.5c-1.7-1.9-3-4.1-4-6.6c-1-2.5-1.4-5.2-1.4-8.1
			v-0.1c0-2.9,0.5-5.5,1.4-8.1c1-2.5,2.3-4.7,4.1-6.6c1.7-1.9,3.8-3.4,6.2-4.5c2.4-1.1,5-1.7,7.9-1.7c2.9,0,5.5,0.5,7.9,1.6
			c2.4,1.1,4.4,2.6,6.1,4.5c1.7,1.9,3,4.1,4,6.6c1,2.5,1.4,5.2,1.4,8.1v0.1c0,2.9-0.5,5.5-1.4,8.1c-1,2.5-2.3,4.7-4.1,6.6
			c-1.7,1.9-3.8,3.4-6.2,4.5C510.5,49.8,507.9,50.4,505,50.4z M505.1,43.9c1.8,0,3.5-0.4,5.1-1.1c1.5-0.7,2.9-1.8,4-3.1
			c1.1-1.3,2-2.8,2.6-4.5c0.6-1.7,0.9-3.6,0.9-5.5v-0.1c0-2-0.3-3.8-0.9-5.6c-0.6-1.8-1.5-3.3-2.6-4.6c-1.1-1.3-2.5-2.3-4-3.1
			c-1.6-0.8-3.3-1.2-5.1-1.2s-3.5,0.4-5.1,1.1c-1.5,0.8-2.9,1.8-4,3.1c-1.1,1.3-2,2.8-2.6,4.5c-0.6,1.7-0.9,3.6-0.9,5.5v0.1
			c0,2,0.3,3.8,0.9,5.6c0.6,1.8,1.5,3.3,2.6,4.6c1.1,1.3,2.5,2.3,4,3.1C501.6,43.5,503.3,43.9,505.1,43.9z"/>
	</g>
	<g>
		<path class="st0" d="M255,75.1h14.7c2.2,0,4.1,0.3,5.9,1c1.8,0.6,3.3,1.6,4.5,2.7c1.2,1.2,2.2,2.6,2.8,4.3c0.7,1.7,1,3.5,1,5.5
			v0.1c0,2.3-0.4,4.3-1.2,6c-0.8,1.7-1.9,3.1-3.2,4.3c-1.4,1.2-2.9,2-4.8,2.6c-1.8,0.6-3.8,0.9-5.8,0.9h-7.4v13H255V75.1z
			 M269.2,96.1c2.5,0,4.5-0.7,5.9-2c1.4-1.4,2.2-3.1,2.2-5.2v-0.1c0-2.4-0.7-4.2-2.2-5.4c-1.5-1.2-3.4-1.8-5.9-1.8h-7.7v14.6H269.2z
			"/>
		<path class="st0" d="M303.9,74.8h6.1l16.4,40.7h-6.9l-3.8-9.8H298l-3.8,9.8h-6.7L303.9,74.8z M313.2,99.4l-6.5-16.2l-6.4,16.2
			H313.2z"/>
		<path class="st0" d="M332.8,75.1h6.5v34h19.6v6.4h-26.1V75.1z"/>
		<path class="st0" d="M381.1,116.1c-2.4,0-4.6-0.4-6.6-1.1c-2-0.7-3.6-1.9-5-3.4c-1.4-1.5-2.5-3.4-3.2-5.6
			c-0.7-2.2-1.1-4.8-1.1-7.7V75.1h6.5v23c0,3.8,0.8,6.6,2.5,8.6c1.7,2,4,2.9,7,2.9c2.9,0,5.2-0.9,6.9-2.8c1.7-1.9,2.5-4.7,2.5-8.4
			V75.1h6.5V98c0,3-0.4,5.6-1.1,7.9c-0.8,2.3-1.8,4.2-3.2,5.7c-1.4,1.5-3.1,2.7-5,3.4C385.7,115.8,383.5,116.1,381.1,116.1z"/>
	</g>
	<g>
		<path class="st0" d="M266.3,171.3c-2.2,0-4.3-0.5-6.2-1.3c-1.9-0.9-3.5-2.1-4.9-3.7c-1.4-1.6-2.5-3.4-3.2-5.5
			c-0.8-2.1-1.2-4.4-1.2-6.8v-0.1c0-2.4,0.4-4.6,1.2-6.7s1.9-4,3.2-5.6c1.4-1.6,3-2.8,4.9-3.8c1.9-0.9,4-1.4,6.2-1.4
			c1.4,0,2.6,0.1,3.8,0.4c1.1,0.3,2.2,0.6,3.1,1.1c1,0.5,1.9,1.1,2.7,1.7c0.8,0.7,1.7,1.4,2.5,2.2l-1.6,1.8c-0.7-0.7-1.4-1.4-2.1-2
			c-0.7-0.6-1.5-1.1-2.4-1.6c-0.8-0.4-1.8-0.8-2.8-1c-1-0.3-2.1-0.4-3.2-0.4c-1.9,0-3.6,0.4-5.2,1.2c-1.6,0.8-3,1.8-4.2,3.2
			c-1.2,1.4-2.1,3-2.8,4.8c-0.7,1.8-1,3.8-1,5.9v0.1c0,2.1,0.3,4.1,1,5.9c0.7,1.8,1.6,3.5,2.8,4.8c1.2,1.4,2.6,2.4,4.2,3.2
			s3.3,1.2,5.2,1.2c2.2,0,4.2-0.4,5.9-1.3c1.7-0.9,3.3-2.2,4.8-3.9l1.6,1.6c-0.8,0.9-1.7,1.7-2.6,2.4c-0.9,0.7-1.8,1.3-2.8,1.9
			c-1,0.5-2.1,0.9-3.2,1.2C268.9,171.2,267.6,171.3,266.3,171.3z"/>
		<path class="st0" d="M297.8,146.2h2.2v7c0.4-1.1,1-2.1,1.7-3c0.7-0.9,1.5-1.7,2.3-2.4c0.9-0.7,1.8-1.2,2.8-1.5
			c1-0.3,2.1-0.5,3.2-0.5v2.6h-0.2c-1.3,0-2.5,0.3-3.7,0.8c-1.2,0.5-2.2,1.3-3.1,2.4c-0.9,1-1.6,2.3-2.2,3.8
			c-0.5,1.5-0.8,3.3-0.8,5.3v10.1h-2.2V146.2z"/>
		<path class="st0" d="M338.5,171.3c-1.5,0-2.9-0.3-4.3-0.9c-1.4-0.6-2.5-1.5-3.6-2.6c-1-1.1-1.8-2.5-2.4-4
			c-0.6-1.6-0.9-3.3-0.9-5.2v-0.1c0-1.8,0.3-3.4,0.8-5c0.5-1.6,1.3-2.9,2.3-4.1c1-1.2,2.1-2.1,3.4-2.7c1.3-0.7,2.7-1,4.3-1
			c1.6,0,3,0.3,4.3,1c1.3,0.7,2.4,1.6,3.3,2.7c0.9,1.2,1.6,2.5,2.1,4.1c0.5,1.6,0.7,3.2,0.7,5.1c0,0.2,0,0.4,0,0.5
			c0,0.1,0,0.3,0,0.5h-18.8c0.1,1.5,0.4,2.9,0.9,4.1c0.5,1.2,1.2,2.2,2,3c0.8,0.8,1.7,1.5,2.7,1.9c1,0.4,2.1,0.6,3.2,0.6
			c1.8,0,3.3-0.4,4.5-1.1c1.2-0.7,2.3-1.7,3.3-2.7l1.5,1.4c-1.2,1.3-2.5,2.5-3.9,3.3C342.5,170.9,340.7,171.3,338.5,171.3z
			 M346.2,157.3c-0.1-1.3-0.3-2.4-0.7-3.6c-0.4-1.1-0.9-2.1-1.6-3c-0.7-0.9-1.5-1.6-2.5-2.1s-2.1-0.8-3.4-0.8
			c-1.1,0-2.2,0.2-3.2,0.7c-1,0.5-1.8,1.1-2.6,2c-0.7,0.8-1.3,1.9-1.8,3c-0.5,1.2-0.8,2.4-0.8,3.8H346.2z"/>
		<path class="st0" d="M375.1,171.3c-1.1,0-2.1-0.2-3.2-0.5s-2-0.8-2.8-1.4c-0.8-0.6-1.5-1.4-2-2.4c-0.5-1-0.8-2.1-0.8-3.4v-0.1
			c0-1.3,0.2-2.4,0.7-3.4c0.5-1,1.2-1.8,2-2.5c0.9-0.7,1.9-1.2,3.1-1.5c1.2-0.4,2.6-0.5,4-0.5c1.6,0,3,0.1,4.1,0.3
			c1.2,0.2,2.3,0.4,3.4,0.8v-1.1c0-2.5-0.7-4.4-2-5.6c-1.3-1.2-3.1-1.9-5.5-1.9c-1.4,0-2.7,0.2-3.8,0.6c-1.2,0.4-2.3,0.8-3.3,1.4
			l-0.8-2.1c1.2-0.7,2.5-1.2,3.8-1.6c1.3-0.4,2.7-0.6,4.3-0.6c3.1,0,5.5,0.9,7.2,2.7c1.5,1.7,2.3,4,2.3,6.9v15.3h-2.1v-4.1
			c-0.4,0.6-0.9,1.1-1.4,1.7c-0.5,0.6-1.2,1.1-1.9,1.5c-0.7,0.4-1.5,0.8-2.4,1.1C377.1,171.2,376.2,171.3,375.1,171.3z M375.2,169.1
			c1.2,0,2.3-0.2,3.3-0.6c1-0.4,1.9-0.9,2.7-1.5c0.8-0.7,1.4-1.4,1.9-2.4c0.5-0.9,0.7-1.9,0.7-3.1v-2.8c-0.9-0.3-2.1-0.5-3.3-0.7
			c-1.3-0.2-2.7-0.4-4.4-0.4c-2.4,0-4.2,0.5-5.5,1.6c-1.3,1-1.9,2.4-1.9,4.1v0.1c0,0.9,0.2,1.7,0.5,2.4c0.4,0.7,0.8,1.3,1.4,1.7
			c0.6,0.5,1.3,0.8,2.1,1.1C373.5,169,374.4,169.1,375.2,169.1z"/>
		<path class="st0" d="M414.6,171.2c-0.9,0-1.7-0.1-2.5-0.4c-0.8-0.3-1.4-0.7-2-1.2c-0.6-0.6-1-1.3-1.4-2.1c-0.3-0.8-0.5-1.9-0.5-3
			v-16.1h-3.3v-2.2h3.3v-7.8h2.2v7.8h8v2.2h-8v15.8c0,1.8,0.4,3,1.3,3.7c0.8,0.7,1.9,1.1,3.3,1.1c0.6,0,1.1-0.1,1.6-0.2
			c0.5-0.1,1.1-0.3,1.7-0.6v2.2c-0.6,0.3-1.2,0.5-1.8,0.6C415.9,171.1,415.3,171.2,414.6,171.2z"/>
		<path class="st0" d="M438.2,136.6h2.7v3.2h-2.7V136.6z M438.5,146.2h2.2v24.5h-2.2V146.2z"/>
		<path class="st0" d="M460.2,146.2h2.5l8.6,21.9l8.7-21.9h2.4L472.3,171h-1.9L460.2,146.2z"/>
		<path class="st0" d="M511.3,171.3c-1.5,0-2.9-0.3-4.3-0.9c-1.4-0.6-2.5-1.5-3.6-2.6c-1-1.1-1.8-2.5-2.4-4
			c-0.6-1.6-0.9-3.3-0.9-5.2v-0.1c0-1.8,0.3-3.4,0.8-5c0.5-1.6,1.3-2.9,2.3-4.1c1-1.2,2.1-2.1,3.4-2.7c1.3-0.7,2.7-1,4.3-1
			c1.6,0,3,0.3,4.3,1c1.3,0.7,2.4,1.6,3.3,2.7c0.9,1.2,1.6,2.5,2.1,4.1c0.5,1.6,0.7,3.2,0.7,5.1c0,0.2,0,0.4,0,0.5
			c0,0.1,0,0.3,0,0.5h-18.8c0.1,1.5,0.4,2.9,0.9,4.1c0.5,1.2,1.2,2.2,2,3c0.8,0.8,1.7,1.5,2.7,1.9c1,0.4,2.1,0.6,3.2,0.6
			c1.8,0,3.3-0.4,4.5-1.1c1.2-0.7,2.3-1.7,3.3-2.7l1.5,1.4c-1.2,1.3-2.5,2.5-3.9,3.3C515.3,170.9,513.5,171.3,511.3,171.3z
			 M519,157.3c-0.1-1.3-0.3-2.4-0.7-3.6c-0.4-1.1-0.9-2.1-1.6-3c-0.7-0.9-1.5-1.6-2.5-2.1s-2.1-0.8-3.4-0.8c-1.1,0-2.2,0.2-3.2,0.7
			s-1.8,1.1-2.6,2c-0.7,0.8-1.3,1.9-1.8,3c-0.5,1.2-0.8,2.4-0.8,3.8H519z"/>
	</g>
</g>
</svg>
